<?xml version="1.0" encoding="UTF-8" standalone="no"?>
<!DOCTYPE svg PUBLIC "-//W3C//DTD SVG 1.1//EN" "http://www.w3.org/Graphics/SVG/1.1/DTD/svg11.dtd">
<svg width="100%" height="100%" viewBox="0 0 772 772" version="1.1" xmlns="http://www.w3.org/2000/svg" style="fill-rule:evenodd;clip-rule:evenodd;stroke-linejoin:round;stroke-miterlimit:2;">
    <g transform="matrix(1,0,0,1,-415.532,-476.072)">
        <g transform="matrix(0.846008,0,0,0.846008,123.478,85.6501)">
            <path d="M1256.7,689.359C1256.7,563.593 1154.6,461.487 1028.83,461.487L573.085,461.487C447.319,461.487 345.213,563.593 345.213,689.359L345.213,1145.1C345.213,1270.87 447.319,1372.98 573.085,1372.98L1028.83,1372.98C1154.6,1372.98 1256.7,1270.87 1256.7,1145.1L1256.7,689.359Z" style="fill:rgb(0,195,251);"/>
            <clipPath id="_clip1">
                <path d="M1256.7,689.359C1256.7,563.593 1154.6,461.487 1028.83,461.487L573.085,461.487C447.319,461.487 345.213,563.593 345.213,689.359L345.213,1145.1C345.213,1270.87 447.319,1372.98 573.085,1372.98L1028.83,1372.98C1154.6,1372.98 1256.7,1270.87 1256.7,1145.1L1256.7,689.359Z"/>
            </clipPath>
            <g clip-path="url(#_clip1)">
                <g transform="matrix(-0.866433,-0.804032,0.804032,-0.866433,804.709,2263.42)">
                    <path d="M789.681,844.184L571.367,347.882L724.083,301.402L789.681,844.184Z" style="fill:white;fill-opacity:0.29;"/>
                </g>
                <g transform="matrix(-0.105834,-1.17727,1.17727,-0.105834,-103.475,1919.31)">
                    <path d="M789.681,844.184L571.367,347.882L724.083,301.402L789.681,844.184Z" style="fill:white;fill-opacity:0.29;"/>
                </g>
                <g transform="matrix(-0.72145,0.936314,-0.936314,-0.72145,2158.87,772.641)">
                    <path d="M789.681,844.184L571.367,347.882L724.083,301.402L789.681,844.184Z" style="fill:white;fill-opacity:0.29;"/>
                </g>
                <g transform="matrix(-1.16337,0.209179,-0.209179,-1.16337,1891.63,1721.41)">
                    <path d="M789.681,844.184L571.367,347.882L724.083,301.402L789.681,844.184Z" style="fill:white;fill-opacity:0.29;"/>
                </g>
                <g transform="matrix(0.866433,0.804032,-0.804032,0.866433,784.927,-457.812)">
                    <path d="M789.681,844.184L571.367,347.882L724.083,301.402L789.681,844.184Z" style="fill:white;fill-opacity:0.29;"/>
                </g>
                <g transform="matrix(0.0276505,1.1817,-1.1817,0.0276505,1765.81,-51.293)">
                    <path d="M789.681,844.184L571.367,347.882L724.083,301.402L789.681,844.184Z" style="fill:white;fill-opacity:0.29;"/>
                </g>
                <g transform="matrix(0.700839,-0.95184,0.95184,0.700839,-562.559,1064.73)">
                    <path d="M789.681,844.184L571.367,347.882L724.083,301.402L789.681,844.184Z" style="fill:white;fill-opacity:0.29;"/>
                </g>
                <g transform="matrix(1.16337,-0.209179,0.209179,1.16337,-300.289,88.8802)">
                    <path d="M789.681,844.184L571.367,347.882L724.083,301.402L789.681,844.184Z" style="fill:white;fill-opacity:0.29;"/>
                </g>
            </g>
        </g>
        <g transform="matrix(1,0,0,1,-38.2086,-1.2718)">
            <g transform="matrix(1.08967,0.502494,-0.502494,1.08967,-235.502,-897.182)">
                <path d="M1531.75,664.041C1531.75,654.07 1523.65,645.975 1513.68,645.975L1377.26,645.975C1367.29,645.975 1359.19,654.07 1359.19,664.041L1359.19,1096.7C1364.05,1119.1 1436.37,1188.29 1448.93,1188.29C1461.5,1188.29 1520.67,1121 1531.75,1096.7L1531.75,664.041Z" style="fill:rgb(251,254,255);"/>
                <path d="M1531.75,664.041C1531.75,654.07 1523.65,645.975 1513.68,645.975L1377.26,645.975C1367.29,645.975 1359.19,654.07 1359.19,664.041L1359.19,1096.7C1364.05,1119.1 1436.37,1188.29 1448.93,1188.29C1461.5,1188.29 1520.67,1121 1531.75,1096.7L1531.75,664.041ZM1530.92,1096.52L1530.92,664.041C1530.92,654.53 1523.19,646.809 1513.68,646.809C1513.68,646.809 1377.26,646.809 1377.26,646.809C1367.75,646.809 1360.02,654.53 1360.02,664.041L1360.02,1096.61C1361.06,1101.23 1365,1107.85 1370.67,1115.43C1384.15,1133.49 1407.39,1156.91 1425.46,1172.11C1432.08,1177.66 1437.99,1182.12 1442.48,1184.79C1445.31,1186.48 1447.52,1187.46 1448.93,1187.46C1450.34,1187.46 1452.35,1186.51 1454.85,1184.88C1458.85,1182.28 1463.98,1177.94 1469.7,1172.5C1491.95,1151.32 1523.06,1113.55 1530.92,1096.52Z" style="fill:rgb(251,254,255);"/>
            </g>
            <g transform="matrix(1.05007,0,0,1,-19.4125,70.8454)">
                <path d="M729.449,1052.2L700.062,1042.77L685.821,1038.33L647.98,1028.29C624.062,1021.5 584.458,1009.08 558.638,988.556C546.612,978.997 538.224,967.184 542.951,950.922C548.05,932.864 560.072,921.754 574.346,913.907C600.089,899.755 633.728,896.697 662.811,895.445C680.362,894.439 697.713,895.237 715.007,896.709C742.613,899.057 770.079,903.252 797.818,906.423C826.391,909.69 855.072,912.516 883.802,914.529C912.759,916.558 941.767,917.759 970.767,917.759C987.815,917.759 1005.75,918.264 1023.25,916.662C1036.7,915.431 1049.91,912.988 1062.46,908.568C1104.88,893.627 1120.94,860.945 1119.9,827.552C1118.97,797.488 1102.28,765.348 1074.15,745.319C1050.93,728.787 1017.42,717.174 981.07,710.064C933.364,700.733 880.744,698.634 844.257,698.963C822.874,699.298 793.409,695.711 760.366,690.442C742.046,687.521 722.7,684.032 702.965,680.342C667.427,673.697 631.019,665.856 597.571,657.723C581.725,653.87 566.727,650.267 552.68,646.578C538.582,642.875 526.16,638.454 514.531,635.89C503.635,633.488 495.262,633.531 486.997,631.466C486.985,631.459 486.971,631.462 486.964,631.474C486.956,631.485 486.96,631.501 486.971,631.508C492.958,639.288 498.92,647.476 509.068,655.565C525.785,668.889 548.909,679.422 574.244,690.88C588.573,697.361 603.866,703.118 619.631,708.832C647.989,719.111 677.673,728.62 706.674,736.085C760.468,749.932 811.415,757.066 844.56,757.391C878.201,757.309 926.684,759.597 970.641,768.345C998.538,773.897 1024.63,781.708 1042.46,794.402C1054.7,803.117 1063.05,816.405 1063.46,829.485C1063.77,839.507 1057.23,847.861 1044.5,852.345C1036.13,855.29 1027.31,856.765 1018.34,857.585C1002.48,859.037 986.222,858.458 970.767,858.458C943.02,858.458 915.267,857.3 887.561,855.359C859.617,853.402 831.722,850.647 803.929,847.47C775.616,844.234 747.591,839.808 719.399,837.587C699.528,836.022 679.582,835.546 659.44,836.953C622.828,840.032 580.689,846.78 549.134,866.386C523.866,882.086 504.384,904.879 497.151,938.35C490.822,968.622 499.399,992.589 518.052,1010.9C530.804,1023.43 548.151,1033.67 567.282,1040.7C593.643,1050.4 622.569,1055.06 642.204,1057.86L683.448,1060.98L699.868,1058.83L729.402,1052.2C729.402,1052.21 729.412,1052.23 729.425,1052.23C729.439,1052.23 729.449,1052.21 729.449,1052.2Z" style="fill:rgb(251,254,255);"/>
            </g>
        </g>
    </g>
</svg>
